<mxfile host="app.diagrams.net" modified="2024-06-09T08:44:44.640Z" agent="Mozilla/5.0 (Macintosh; Intel Mac OS X 10_15_7) AppleWebKit/537.36 (KHTML, like Gecko) Chrome/125.0.0.0 Safari/537.36" etag="e_0ero3nCyA9o8Z5oQYN" version="24.5.2" type="device">
  <diagram name="第 1 页" id="5mUDQXOYf2b6bIWThUh5">
    <mxGraphModel dx="896" dy="594" grid="1" gridSize="10" guides="1" tooltips="1" connect="1" arrows="1" fold="1" page="1" pageScale="1" pageWidth="827" pageHeight="1169" background="#ffffff" math="0" shadow="0">
      <root>
        <mxCell id="0" />
        <mxCell id="1" parent="0" />
        <mxCell id="xTaU3ACxkPvnfc6FId4V-7" style="edgeStyle=orthogonalEdgeStyle;rounded=0;orthogonalLoop=1;jettySize=auto;html=1;entryX=0.5;entryY=0;entryDx=0;entryDy=0;" edge="1" parent="1" source="xTaU3ACxkPvnfc6FId4V-1" target="xTaU3ACxkPvnfc6FId4V-2">
          <mxGeometry relative="1" as="geometry" />
        </mxCell>
        <mxCell id="xTaU3ACxkPvnfc6FId4V-1" value="解锁流程" style="ellipse;whiteSpace=wrap;html=1;" vertex="1" parent="1">
          <mxGeometry x="70" y="80" width="100" height="60" as="geometry" />
        </mxCell>
        <mxCell id="xTaU3ACxkPvnfc6FId4V-8" style="edgeStyle=orthogonalEdgeStyle;rounded=0;orthogonalLoop=1;jettySize=auto;html=1;entryX=0.5;entryY=0;entryDx=0;entryDy=0;" edge="1" parent="1" source="xTaU3ACxkPvnfc6FId4V-2" target="xTaU3ACxkPvnfc6FId4V-4">
          <mxGeometry relative="1" as="geometry" />
        </mxCell>
        <mxCell id="xTaU3ACxkPvnfc6FId4V-2" value="执行 Lua 脚本解锁" style="rounded=1;whiteSpace=wrap;html=1;" vertex="1" parent="1">
          <mxGeometry x="65" y="180" width="110" height="40" as="geometry" />
        </mxCell>
        <mxCell id="xTaU3ACxkPvnfc6FId4V-10" style="edgeStyle=orthogonalEdgeStyle;rounded=0;orthogonalLoop=1;jettySize=auto;html=1;entryX=0.5;entryY=0;entryDx=0;entryDy=0;" edge="1" parent="1" source="xTaU3ACxkPvnfc6FId4V-3" target="xTaU3ACxkPvnfc6FId4V-9">
          <mxGeometry relative="1" as="geometry" />
        </mxCell>
        <mxCell id="xTaU3ACxkPvnfc6FId4V-3" value="取消看门狗协程" style="rounded=1;whiteSpace=wrap;html=1;" vertex="1" parent="1">
          <mxGeometry x="65" y="380" width="110" height="40" as="geometry" />
        </mxCell>
        <mxCell id="xTaU3ACxkPvnfc6FId4V-5" style="edgeStyle=orthogonalEdgeStyle;rounded=0;orthogonalLoop=1;jettySize=auto;html=1;entryX=0.5;entryY=0;entryDx=0;entryDy=0;" edge="1" parent="1" source="xTaU3ACxkPvnfc6FId4V-4" target="xTaU3ACxkPvnfc6FId4V-3">
          <mxGeometry relative="1" as="geometry" />
        </mxCell>
        <mxCell id="xTaU3ACxkPvnfc6FId4V-6" value="如果设置" style="edgeLabel;html=1;align=center;verticalAlign=middle;resizable=0;points=[];" vertex="1" connectable="0" parent="xTaU3ACxkPvnfc6FId4V-5">
          <mxGeometry x="-0.056" y="-3" relative="1" as="geometry">
            <mxPoint as="offset" />
          </mxGeometry>
        </mxCell>
        <mxCell id="xTaU3ACxkPvnfc6FId4V-11" style="edgeStyle=orthogonalEdgeStyle;rounded=0;orthogonalLoop=1;jettySize=auto;html=1;entryX=0.5;entryY=0;entryDx=0;entryDy=0;" edge="1" parent="1" source="xTaU3ACxkPvnfc6FId4V-4" target="xTaU3ACxkPvnfc6FId4V-9">
          <mxGeometry relative="1" as="geometry">
            <mxPoint x="220" y="460" as="targetPoint" />
            <Array as="points">
              <mxPoint x="240" y="295" />
              <mxPoint x="240" y="440" />
              <mxPoint x="120" y="440" />
            </Array>
          </mxGeometry>
        </mxCell>
        <mxCell id="xTaU3ACxkPvnfc6FId4V-12" value="如果未设置" style="edgeLabel;html=1;align=center;verticalAlign=middle;resizable=0;points=[];" vertex="1" connectable="0" parent="xTaU3ACxkPvnfc6FId4V-11">
          <mxGeometry x="-0.8523" y="-1" relative="1" as="geometry">
            <mxPoint x="11" y="-1" as="offset" />
          </mxGeometry>
        </mxCell>
        <mxCell id="xTaU3ACxkPvnfc6FId4V-4" value="是否设置&lt;div&gt;看门狗&lt;/div&gt;" style="rhombus;whiteSpace=wrap;html=1;" vertex="1" parent="1">
          <mxGeometry x="80" y="260" width="80" height="70" as="geometry" />
        </mxCell>
        <mxCell id="xTaU3ACxkPvnfc6FId4V-9" value="解锁结束&lt;div&gt;返回结果&lt;/div&gt;" style="rounded=1;whiteSpace=wrap;html=1;" vertex="1" parent="1">
          <mxGeometry x="75" y="460" width="90" height="50" as="geometry" />
        </mxCell>
      </root>
    </mxGraphModel>
  </diagram>
</mxfile>
